<svg xmlns="http://www.w3.org/2000/svg" width="86.6" height="86.6" viewBox="0 0 86.6 86.6">
  <g id="Grupo_962" data-name="Grupo 962" transform="translate(0.5 0.5)">
    <path id="Caminho_700" data-name="Caminho 700" d="M42.8,84.6h0A41.834,41.834,0,0,1,1,42.8H1A41.723,41.723,0,0,1,42.8,1h0A41.723,41.723,0,0,1,84.6,42.8h0A41.945,41.945,0,0,1,42.8,84.6Z" fill="none" stroke="#e0274a" stroke-miterlimit="10" stroke-width="3"/>
    <path id="Caminho_701" data-name="Caminho 701" d="M51.182,18.018l-2.764-2.936a2.822,2.822,0,0,0-4.145,0l-8.982,9.155a2.822,2.822,0,0,1-4.145,0l-9.155-9.155a2.822,2.822,0,0,0-4.145,0l-2.764,2.764a2.822,2.822,0,0,0,0,4.145l9.155,9.155a2.822,2.822,0,0,1,0,4.145l-9.155,9.155a2.822,2.822,0,0,0,0,4.145l2.764,2.764a2.822,2.822,0,0,0,4.145,0L31.145,42.2a2.822,2.822,0,0,1,4.145,0l9.155,9.155a2.822,2.822,0,0,0,4.145,0l2.764-2.764a2.822,2.822,0,0,0,0-4.145L42.2,35.291a2.822,2.822,0,0,1,0-4.145l9.155-9.155A2.77,2.77,0,0,0,51.182,18.018Z" transform="translate(9.582 9.582)" fill="none" stroke="#e0274a" stroke-miterlimit="10" stroke-width="3"/>
  </g>
</svg>
