<svg xmlns="http://www.w3.org/2000/svg" width="85" height="85" viewBox="0 0 85 85">
  <g id="Grupo_1253" data-name="Grupo 1253" transform="translate(-320 -794)">
    <g id="Grupo_1253-2" data-name="Grupo 1253" transform="translate(95 681)">
      <g id="Elipse_162" data-name="Elipse 162" transform="translate(225 113)" fill="#fff" stroke="#0ccb81" stroke-width="3.5">
        <circle cx="42.5" cy="42.5" r="42.5" stroke="none"/>
        <circle cx="42.5" cy="42.5" r="40.75" fill="none"/>
      </g>
    </g>
    <g id="União_39" data-name="União 39" transform="translate(9302.245 -7169.864)" fill="none">
      <path d="M-8942.634,8022.528a2.992,2.992,0,0,1-2.184-.878l-14.217-14.216a3,3,0,0,1,0-4.244l5.346-5.343a3,3,0,0,1,4.243,0l6.812,6.813,12.864-12.864a3,3,0,0,1,4.244,0l5.345,5.343a3,3,0,0,1,0,4.244l-20.27,20.268a2.994,2.994,0,0,1-2.122.878Z" stroke="none"/>
      <path d="M -8942.6337890625 8018.88427734375 L -8923.0087890625 7999.26123046875 L -8927.6474609375 7994.6240234375 L -8940.1591796875 8007.1357421875 L -8942.6337890625 8009.61083984375 L -8945.109375 8007.13525390625 L -8951.5673828125 8000.67578125 L -8956.2060546875 8005.3125 L -8942.6337890625 8018.88427734375 M -8942.6953125 8022.52880859375 C -8943.462890625 8022.52880859375 -8944.2314453125 8022.236328125 -8944.8173828125 8021.650390625 L -8959.0341796875 8007.43408203125 C -8960.205078125 8006.26220703125 -8960.205078125 8004.3623046875 -8959.0341796875 8003.1904296875 L -8953.6884765625 7997.84765625 C -8953.1025390625 7997.26171875 -8952.3359375 7996.96923828125 -8951.568359375 7996.96923828125 C -8950.80078125 7996.96923828125 -8950.0322265625 7997.26171875 -8949.4453125 7997.84765625 L -8942.6337890625 8004.66064453125 L -8929.76953125 7991.79638671875 C -8929.18359375 7991.20947265625 -8928.4150390625 7990.916015625 -8927.6474609375 7990.916015625 C -8926.87890625 7990.916015625 -8926.111328125 7991.20947265625 -8925.525390625 7991.79638671875 L -8920.1806640625 7997.13916015625 C -8919.0087890625 7998.31103515625 -8919.0087890625 8000.2109375 -8920.1806640625 8001.3828125 L -8940.4501953125 8021.650390625 C -8941.0361328125 8022.23583984375 -8941.8046875 8022.52880859375 -8942.572265625 8022.52880859375 C -8942.5927734375 8022.52880859375 -8942.61328125 8022.52880859375 -8942.6337890625 8022.5283203125 C -8942.654296875 8022.52880859375 -8942.6748046875 8022.52880859375 -8942.6953125 8022.52880859375 Z" stroke="none" fill="#0ccb81"/>
    </g>
  </g>
</svg>
